<?xml version="1.0" encoding="iso-8859-1"?>
<!-- Generator: Adobe Illustrator 18.0.0, SVG Export Plug-In . SVG Version: 6.00 Build 0)  -->
<!DOCTYPE svg PUBLIC "-//W3C//DTD SVG 1.1//EN" "http://www.w3.org/Graphics/SVG/1.1/DTD/svg11.dtd">
<svg xmlns="http://www.w3.org/2000/svg" xmlns:xlink="http://www.w3.org/1999/xlink" version="1.1" id="Capa_1" x="0px" y="0px" viewBox="0 0 297 297" style="enable-background:new 0 0 297 297;" xml:space="preserve" width="512px" height="512px">
<g>
	<path d="M0,282.298c0,5.458,4.426,9.884,9.884,9.884h277.232c5.458,0,9.884-4.426,9.884-9.884V14.701   c0-5.457-4.426-9.883-9.884-9.883H9.884C4.426,4.818,0,9.244,0,14.701V282.298z M19.767,24.585h257.467v159.619H142.075v-34.923   l37.929-37.623c1.866-1.851,2.918-4.368,2.923-6.996c0.005-2.628-1.036-5.15-2.895-7.01l-0.271-0.271l56.209-42.156   c4.366-3.275,5.251-9.471,1.977-13.838c-3.275-4.366-9.47-5.251-13.838-1.977l-58.468,43.85l-1.916-1.916   c-3.193-3.191-8.145-3.814-12.028-1.513L131.977,91.52c1.047-3.686,1.619-7.569,1.619-11.587c0-23.434-19.065-42.499-42.499-42.499   c-23.435,0-42.499,19.065-42.499,42.499c0,9.72,3.287,18.681,8.797,25.849c-9.714,8.48-12.344,21.346-13.412,26.588   c-2.775,13.617-3.153,31.365-3.205,51.835H19.767V24.585z M91.098,102.665c-12.535,0-22.732-10.197-22.732-22.732   c0-12.534,10.197-22.731,22.732-22.731c12.534,0,22.731,10.197,22.731,22.731C113.829,92.468,103.632,102.665,91.098,102.665z    M63.352,136.316c1.406-6.9,3.288-11.186,5.417-13.885h47.115c1.772,0,3.514-0.477,5.039-1.381l34.25-20.302l3.864,3.864   l-33.806,33.534c-1.872,1.856-2.924,4.382-2.924,7.017v39.04H60.544C60.594,164.825,60.938,148.16,63.352,136.316z    M277.233,203.971v68.444H19.767v-68.444H277.233z" fill="#cccccc"/>
	<path d="M258.003,227.197H80.115v-3.041c0-5.458-4.425-9.884-9.884-9.884c-5.458,0-9.883,4.426-9.883,9.884v3.041H38.994   c-5.458,0-9.883,4.426-9.883,9.884c0,5.458,4.425,9.884,9.883,9.884h21.354v3.041c0,5.458,4.425,9.884,9.883,9.884   c5.459,0,9.884-4.426,9.884-9.884v-3.041h177.888c5.459,0,9.884-4.426,9.884-9.884   C267.887,231.623,263.462,227.197,258.003,227.197z" fill="#cccccc"/>
</g>
<g>
</g>
<g>
</g>
<g>
</g>
<g>
</g>
<g>
</g>
<g>
</g>
<g>
</g>
<g>
</g>
<g>
</g>
<g>
</g>
<g>
</g>
<g>
</g>
<g>
</g>
<g>
</g>
<g>
</g>
</svg>
